<svg xmlns="http://www.w3.org/2000/svg" width="54" height="45" viewBox="0 0 54 45">
    <g fill="none" fill-rule="nonzero">
        <path fill="#F2CB13" d="M53.526 43.03c-.043.07-.081.144-.115.219-.397 1.059-1.252 1.734-2.304 1.734-1.089 0-1.889-.524-2.346-1.525-1.05-2.293-2.029-4.622-3.15-6.88-.73-1.482-1.07-2.978-.97-4.626.079-1.282.015-2.573.015-3.94-.79.093-1.524.168-2.253.279-.125.019-.243.18-.337.298a1170.319 1170.319 0 0 0-4.387 5.38 1.892 1.892 0 0 0-.37.781c-.541 2.661-1.06 5.329-1.59 7.992-.395 1.993-2.406 2.897-3.934 1.76-.805-.599-1.173-1.425-.981-2.427a599.56 599.56 0 0 1 1.846-9.273c.118-.488.344-.943.661-1.33a439.763 439.763 0 0 1 5.08-6.23c.23-.278.27-.5.125-.838-.708-1.627-1.388-3.265-2.11-4.976-.582.832-1.148 1.596-1.67 2.394-.616.952-1.426 1.28-2.537 1.037-1.487-.324-2.988-.576-4.594-.879 1.608-.701 2.36-1.874 2.38-3.548.564.11 1.075.192 1.576.315.344.083.574.027.769-.303.265-.448.584-.866.885-1.291.626-.885 1.118-1.907 2.213-2.376l-3.29 1.013c-.794.244-1.588.487-2.382.734-.289.09-.499.061-.73-.199-.641-.727-1.485-1.048-2.443-1.111a1.777 1.777 0 0 1-.73-.203 393.528 393.528 0 0 1-4.885-2.782c-1.017-.588-1.356-1.721-.824-2.688.54-.984 1.711-1.306 2.739-.727 2.04 1.154 4.067 2.328 6.11 3.468.251.128.539.162.812.097 1.48-.428 2.95-.897 4.42-1.364a1.21 1.21 0 0 0 .41-.21 8.566 8.566 0 0 1 4.773-1.975c2.827-.263 5.434 1.544 6.306 4.289 1.286 4.047 2.533 8.105 3.79 12.163.062.235.09.478.084.72.006 2.233-.008 4.466.014 6.698.004.379.084.753.235 1.1 1.087 2.448 2.202 4.884 3.308 7.324.127.283.248.569.372.853l.01 1.054z"/>
        <path fill="#000" d="M18.708 16.06L16.45 13.46l-.059.03c.047.111.09.225.145.332.573 1.11 1.155 2.215 1.715 3.334.15.3.322.373.648.344 2.415-.219 4.832-.425 7.25-.619 1.26-.104 2.177.635 2.265 1.775.087 1.14-.72 2.004-1.964 2.109-2.92.245-5.842.486-8.762.744-1.05.093-1.773-.32-2.244-1.252-.703-1.395-1.437-2.775-2.158-4.16a.998.998 0 0 0-.333-.413c.156.683.315 1.364.471 2.046.23.979.493 1.952.687 2.937.194.985.644 1.787 1.66 2.247-.228.544-.427 1.075-.672 1.584-.157.325-.124.55.113.835 1.642 1.961 3.255 3.946 4.897 5.905.503.577.843 1.276.988 2.025.562 2.928 1.176 5.844 1.744 8.774.136.636.01 1.3-.349 1.843a2.453 2.453 0 0 1-1.562 1.051c-1.38.28-2.648-.504-2.949-1.908-.579-2.713-1.1-5.437-1.668-8.153a2.105 2.105 0 0 0-.41-.867 393.094 393.094 0 0 0-4.387-5.31 1.157 1.157 0 0 0-.642-.348c-.63-.112-1.267-.165-1.967-.248v.637c0 1.67.022 3.334-.015 5a3.69 3.69 0 0 1-.304 1.4c-1.241 2.771-2.52 5.526-3.785 8.284-.63 1.357-2.045 1.933-3.338 1.362C.153 44.197-.364 42.75.27 41.353c1.147-2.526 2.317-5.045 3.464-7.574.125-.283.19-.588.193-.897.015-2.221 0-4.443.012-6.665 0-.362.051-.721.155-1.068 1.21-3.888 2.432-7.774 3.664-11.657 1.201-3.757 4.966-5.461 8.629-3.934.193.08.38.178.58.24.827.258 1.425.597 1.5 1.652.043.596.587 1.18.98 1.716.176.24.272.408.157.683-.287.704-.572 1.412-.896 2.21z"/>
        <path fill="#F2CB13" d="M30.316 4.23a4.263 4.263 0 1 1 8.526.066 4.263 4.263 0 0 1-8.526-.066z"/>
        <path fill="#000" d="M23.21 4.2c0 .943-.223 1.734-.708 2.427a.794.794 0 0 1-.566.3c-1.198-.005-2.161.442-2.923 1.372a.713.713 0 0 1-.54.227c-2.201-.26-3.846-2.144-3.787-4.307.06-2.236 1.79-4.07 3.968-4.209a4.276 4.276 0 0 1 4.517 3.664c.032.203.031.412.04.526z"/>
    </g>
</svg>
