<svg xmlns="http://www.w3.org/2000/svg" width="46" height="45" viewBox="0 0 46 45">
    <g fill="none" fill-rule="nonzero">
        <path fill="#EDCF23" d="M29.118 42.882V45h2.73-20.193l1.102-15.331.797-9.81-.475-.129-2.545 9.55-2.462 8.734L0 34.996 8.072 7.828c1.036-1.782 2.417-2.817 4.144-3.104 1.727-.288 3.065-.777 4.015-1.466L19.49 0h6.756l2.87 3.07v2.8a19.37 19.37 0 0 1-.09-.033l-9.99 26.987-3.155-1.164 5.852-15.807-4.735-10.314c-1.17.694-2.617 1.17-4.339 1.457-.971.162-1.758.718-2.442 1.808L2.824 33.737l3.825 1.433 4.82-17.132c.733-2.604 4.593-1.929 4.399.77l-1.727 24.074h14.977zM19.623 3.167l3.769 8.208 2.961-8.001-1.007-1.08h-4.85l-.873.873z"/>
        <path fill="#AFB1B4" d="M12.176 33.53h21.53v-3.354h-21.53z"/>
        <path fill="#AFB1B4" d="M21.706 32.856l5.026 7.026 2.739-1.973-5.027-7.027z"/>
        <path fill="#AFB1B4" d="M23.824 32.847l-5.008 7.035-2.757-1.965 5.007-7.035z"/>
        <path fill="#AFB1B4" d="M21.066 30.882l2.758 1.965-5.008 7.035-2.757-1.965zM30 19.412h15.882v6.353H30z"/>
    </g>
</svg>
