<svg xmlns="http://www.w3.org/2000/svg" width="46" height="45" viewBox="0 0 46 45">
    <g fill="none" fill-rule="nonzero">
        <g fill="#EDCF23">
            <path d="M29.118 42.882V45h2.73-20.193l1.102-15.331.797-9.81-.475-.129-2.545 9.55-2.462 8.734L0 34.996 8.072 7.828c1.036-1.782 2.417-2.817 4.144-3.104 1.727-.288 3.065-.777 4.015-1.466L19.49 0h6.756l2.87 3.07v2.8a19.37 19.37 0 0 1-.09-.033l-9.99 26.987-3.155-1.164 5.852-15.807-4.735-10.314c-1.17.694-2.617 1.17-4.339 1.457-.971.162-1.758.718-2.442 1.808L2.824 33.737l3.825 1.433 4.82-17.132c.733-2.604 4.593-1.929 4.399.77l-1.727 24.074h14.977zM19.623 3.167l3.769 8.208 2.961-8.001-1.007-1.08h-4.85l-.873.873z"/>
            <path d="M12.706 33.53h21v-3.354h-21z"/>
            <path d="M21.706 32.856l5.026 7.026 2.739-1.973-5.027-7.027z"/>
            <path d="M21.066 30.882l2.758 1.965-5.008 7.035-2.757-1.965z"/>
        </g>
        <path fill="#000" d="M31.765 1.765h14.118V45H31.765z"/>
        <path fill="#FFF" d="M38.627 10.33l-.819.898v2.184h-1.996v-8.28h1.996v3.65l.694-1.052 1.786-2.599h2.468l-2.798 3.663 2.798 4.618H40.39l-1.763-3.083zm1.28 12.435h-1.99v-8.28h1.99v8.28zm-4.134 9.353v-8.28h2.667c.731 0 1.39.165 1.973.497.584.332 1.04.8 1.368 1.405.328.604.494 1.282.497 2.033v.38c0 .76-.16 1.439-.48 2.04-.32.6-.772 1.07-1.354 1.41-.582.34-1.23.51-1.947.515h-2.724zm1.996-6.74v5.204h.693c.573 0 1.013-.204 1.32-.611.307-.408.46-1.013.46-1.817v-.359c0-.8-.153-1.402-.46-1.808-.307-.406-.755-.608-1.342-.608h-.671zm2.394 13.892c0-.292-.103-.52-.31-.683-.207-.163-.57-.331-1.09-.506-.519-.174-.943-.343-1.273-.506-1.073-.527-1.61-1.251-1.61-2.172 0-.46.134-.864.402-1.215.267-.35.645-.623 1.134-.819a4.415 4.415 0 0 1 1.65-.292c.595 0 1.128.106 1.6.318.472.212.84.515 1.1.907.262.392.393.84.393 1.345h-1.99c0-.337-.104-.599-.31-.785-.207-.186-.487-.278-.84-.278-.356 0-.637.078-.844.236a.724.724 0 0 0-.31.6c0 .212.114.404.342.577.227.172.627.35 1.2.534.572.184 1.042.382 1.41.595.895.515 1.342 1.226 1.342 2.132 0 .724-.273 1.293-.819 1.706-.546.414-1.295.62-2.246.62-.671 0-1.279-.12-1.823-.36-.544-.242-.953-.571-1.228-.99a2.578 2.578 0 0 1-.413-1.448h2.002c0 .444.115.77.344.981.23.21.602.316 1.118.316.33 0 .59-.071.782-.213a.704.704 0 0 0 .287-.6z"/>
    </g>
</svg>
