<svg xmlns="http://www.w3.org/2000/svg" width="156" height="51" viewBox="0 0 156 51">
    <g fill="none" fill-rule="evenodd">
        <path fill="#F2CB13" fill-rule="nonzero" d="M41.737 20.676H156v15.851H41.737z"/>
        <path fill="#FFF" fill-rule="nonzero" d="M52.392 14.25h-6.25l-1.107 2.98h-3.982l5.983-14.473h4.454l5.984 14.473h-3.975l-1.107-2.98zm-3.125-8.37l-2.135 5.736h4.27l-2.135-5.737zM58.842 2.757h3.587v11.595h8.045v2.878H58.842zM72.526 2.757h3.587v11.595h8.045v2.878H72.526zM86.21 2.757h3.422V17.23H86.21zM102.335 14.25h-6.249l-1.104 2.98H91l5.983-14.473h4.458l5.98 14.473h-3.982l-1.104-2.98zm-3.123-8.37l-2.134 5.736h4.267l-2.133-5.737zM119.575 2.757h3.583V17.23h-4.016l-7.416-10.093h-.037V17.23h-3.584V2.757h4.289l7.148 10.095h.033zM137.013 8.588c-.336-2.072-1.921-3.096-3.81-3.096-3.428 0-4.159 2.895-4.159 4.846 0 1.95.731 4.848 4.158 4.848 1.753 0 3.45-.907 3.804-3.178h3.941c-.457 4.182-3.635 5.91-7.868 5.91-4.848 0-7.868-2.251-7.868-7.58 0-5.33 3.02-7.581 7.868-7.581 3.198 0 7.29.885 7.832 5.84l-3.898-.009zM143 2.757h12.922v2.757h-9.164v3h8.708v2.635h-8.708v3.326H156v2.755h-13z"/>
        <path fill="#222221" fill-rule="nonzero" d="M49.132 24.122h2.184v5.732c0 1.615-.067 3.916-3.24 3.916-1.87 0-3.602-.564-3.602-3.234v-.59h2.184v.655c0 .882.449 1.46 1.18 1.46 1.137 0 1.294-.787 1.294-1.893v-6.046zM53.368 24.122h2.053v8.96h-2.053zM56.79 24.122h2.122v5.396c0 .921.034 2.472 1.982 2.472s1.981-1.55 1.981-2.472v-5.396H65v6.03c0 1.052-.11 3.618-4.106 3.618-3.997 0-4.105-2.578-4.105-3.618v-6.03zM75.123 24.122h2.193v5.732c0 1.615-.067 3.916-3.24 3.916-1.87 0-3.602-.564-3.602-3.234v-.59h2.184v.655c0 .882.46 1.46 1.18 1.46 1.137 0 1.296-.787 1.296-1.893l-.011-6.046zM78.684 24.122h2.053v8.96h-2.053zM84.425 25.828H81.42v-1.706h8.21v1.706h-3.015v7.253h-2.2zM96.417 26.333c-.138-1.19-1.162-1.319-2.06-1.319-.9 0-1.519.47-1.519 1.078 0 .485.367.753.942.856l2.795.5c1.497.268 2.636.897 2.636 2.56 0 1.702-1.036 3.073-4.269 3.073-2.002 0-4.603-.282-4.626-3.136h2.508c.024 1.254 1.15 1.472 2.118 1.472 1.047 0 1.76-.345 1.76-1.14 0-.705-.506-.897-1.393-1.05l-2.035-.345c-1.429-.234-2.808-.718-2.808-2.581 0-2.038 1.495-2.869 4.074-2.869 1.69 0 4.198.32 4.348 2.906l-2.47-.005zM99.895 24.122h2.13v5.396c0 .921.03 2.472 1.98 2.472 1.948 0 1.98-1.55 1.98-2.472v-5.396h2.12v6.03c0 1.052-.11 3.618-4.1 3.618-3.992 0-4.104-2.578-4.104-3.618l-.006-6.03zM116.594 25.828h-3.015v-1.706h8.21v1.706h-3.015v7.253h-2.198zM122.474 24.122h7.48v1.706h-5.303v1.857h5.046v1.633h-5.046v2.056H130v1.707h-7.526zM136.611 31.232h-3.636l-.643 1.838H130l3.488-8.948h2.6l3.49 8.96h-2.322l-.645-1.85zm-1.818-5.176l-1.245 3.547h2.5l-1.255-3.547zM148.56 24.122h3.335v8.96h-2.202v-7.168h-.024l-2.633 7.167h-1.895l-2.645-7.167h-.024v7.167h-2.209v-8.96h3.336l2.48 6.433z"/>
        <path fill="#FFF" d="M38.084 34.181L19.112 0l-.964 1.815C12.443 12.56 6.58 23.426.862 34.197L0 35.824h1.845c5.637 0 11.53.014 17.477.014 5.948 0 11.949 0 17.798-.014H39l-.916-1.643z"/>
        <path fill="#222221" d="M35.579 35.149c-1.82-9.446-8.578-21.77-21.21-20.598 1.048-.023 1.992.843 1.992 2.177 0-.668.521-.857 1.614-1.127 6.51-1.612 14.988 8.123 17.604 19.548"/>
        <path fill="#222221" d="M17.796 15.863c2.003 0 2.788-.147 4.783.587-.678.479-1.357.957-2.002 1.469-.1-.476-.609-1.541-2.788-2.056M14.198 14.482c-1.68 0-3.25 1.631-3.25 5.23.533-1.046 1.039-2.58 2.07-2.038 1.03.541 1.978 3.035 1.978 3.975 1.17.023 3.275.145 4.846 1.094-1.599-4.077-2.636-5.595-6.818-6.13 0-.949.64-2.14 1.174-2.14"/>
        <path fill="#222221" fill-rule="nonzero" d="M12.316 23.111c1.23-.466 2.43 1.195 3.045 2.114 1.814 2.713 2.46 8.3 1.876 10.574.97.052 1.943.052 2.914 0a26.218 26.218 0 0 1 3.112 0c-.368-8.871-6.241-13.24-9.748-13.24.369-.274 2.03-.505 1.814-.505h-.34c-.797 0-2.252.165-2.673 1.069"/>
        <path fill="#FFF" fill-rule="nonzero" d="M65.655 47.817c0 .436-.026 1.758 1.677 1.758 1.073 0 1.751-.514 1.751-1.297 0-.82-.575-.96-1.751-1.242-2.201-.553-3.406-1.207-3.406-2.813 0-1.526 1.088-2.872 3.66-2.872.96 0 2.105.218 2.79 1.09.368.495.553 1.102.525 1.719h-1.907c-.025-.321-.128-1.407-1.496-1.407-.922 0-1.523.5-1.523 1.257 0 .86.678 1.012 2.01 1.348 1.599.384 3.173.82 3.173 2.627 0 1.67-1.382 3.015-3.943 3.015-3.544 0-3.57-2.283-3.583-3.181l2.023-.002zM76.847 41.7l3.206 9.3H78.06l-.664-2.004h-3.649l-.7 2.004h-1.89l3.332-9.296 2.358-.005zm-3.445-.745c.14-.952.74-1.582 1.505-1.582.219.013.434.06.639.141l.728.282c.138.052.285.078.433.078.371 0 .537-.27.6-.59h.65c-.01.45-.193.877-.51 1.193a1.25 1.25 0 0 1-.92.374 1.896 1.896 0 0 1-.662-.14l-.548-.208a2.2 2.2 0 0 0-.576-.127c-.217 0-.51.09-.677.579h-.662zm3.5 6.532l-1.277-3.962-1.367 3.962h2.643zM85.2 41.351c.987 0 2.344.234 3.26 1.25.986 1.125 1.172 2.566 1.172 3.473 0 1.339-.41 2.769-1.173 3.61C87.434 50.835 85.931 51 85.162 51c-1.22 0-2.439-.382-3.283-1.264-1.013-1.073-1.142-2.603-1.142-3.445.01-2.451 1.125-4.94 4.462-4.94zm-1.682 7.464c.284.382.758.739 1.681.739.81 0 1.36-.28 1.733-.856.308-.466.629-1.166.629-2.64a5.295 5.295 0 0 0-.235-1.647c-.384-1.136-1.172-1.632-2.11-1.632-.66-.02-1.29.267-1.705.776-.528.64-.68 1.633-.68 2.68-.005.872.136 1.854.687 2.57v.01zM94.421 41.351h2.945c1.373 0 2.522.087 3.316.981.399.477.604 1.071.58 1.677 0 1.045-.462 1.925-1.208 2.386-.7.422-1.663.422-2.172.422h-1.388v3.494h-2.073v-8.96zm2.02 4.039h.818c.662 0 1.89 0 1.89-1.362 0-1.22-1.095-1.22-1.69-1.22h-1.018v2.582zM106.265 41.351l3.209 8.96h-1.995l-.667-1.936h-3.653l-.689 1.936h-1.891l3.335-8.955 2.351-.005zm.052 5.576l-1.278-3.817-1.368 3.817h2.646zM111.503 41.351v5.777c0 1.036.08 2.337 2.06 2.337.329 0 1.312-.015 1.838-.828.196-.288.302-.657.302-1.614V41.35h1.981v5.921c0 2.821-2.243 3.728-4.159 3.728-.945 0-2.68-.211-3.572-1.64-.458-.72-.48-1.457-.48-2.337V41.35h2.03zM119.737 41.351h2.076v7.43h4.082v1.53h-6.158zM130.357 41.351c.988 0 2.345.234 3.26 1.25.987 1.125 1.172 2.566 1.172 3.473 0 1.339-.41 2.769-1.172 3.61-1.025 1.15-2.528 1.316-3.297 1.316-1.22 0-2.437-.382-3.283-1.264-1.013-1.073-1.142-2.603-1.142-3.445.01-2.451 1.125-4.94 4.462-4.94zm-1.681 7.464c.284.382.757.739 1.681.739.81 0 1.36-.28 1.733-.856.308-.466.629-1.166.629-2.64a5.226 5.226 0 0 0-.235-1.647c-.384-1.136-1.172-1.632-2.11-1.632a2.115 2.115 0 0 0-1.707.776c-.526.64-.68 1.633-.68 2.68-.003.872.138 1.854.689 2.57v.01z"/>
    </g>
</svg>
